<mxfile host="Electron" modified="2023-07-08T08:09:20.529Z" agent="Mozilla/5.0 (Windows NT 10.0; Win64; x64) AppleWebKit/537.36 (KHTML, like Gecko) draw.io/21.1.2 Chrome/106.0.5249.199 Electron/21.4.3 Safari/537.36" etag="elIRjHdOs8KCjoz1CSzX" version="21.1.2" type="device">
  <diagram id="6hGFLwfOUW9BJ-s0fimq" name="Page-1">
    <mxGraphModel dx="962" dy="534" grid="1" gridSize="10" guides="1" tooltips="1" connect="1" arrows="1" fold="1" page="1" pageScale="1" pageWidth="827" pageHeight="583" math="0" shadow="0">
      <root>
        <mxCell id="0" />
        <mxCell id="1" parent="0" />
        <mxCell id="8" style="edgeStyle=orthogonalEdgeStyle;rounded=0;orthogonalLoop=1;jettySize=auto;html=1;" parent="1" source="4" target="5" edge="1">
          <mxGeometry relative="1" as="geometry" />
        </mxCell>
        <mxCell id="11" style="edgeStyle=orthogonalEdgeStyle;rounded=0;orthogonalLoop=1;jettySize=auto;html=1;" parent="1" target="5" edge="1">
          <mxGeometry relative="1" as="geometry">
            <mxPoint x="245" y="344" as="sourcePoint" />
          </mxGeometry>
        </mxCell>
        <mxCell id="20" value="" style="endArrow=none;html=1;strokeWidth=2;entryX=0.499;entryY=0;entryDx=0;entryDy=0;entryPerimeter=0;" parent="1" target="12" edge="1">
          <mxGeometry width="50" height="50" relative="1" as="geometry">
            <mxPoint x="423" y="344" as="sourcePoint" />
            <mxPoint x="453" y="344" as="targetPoint" />
          </mxGeometry>
        </mxCell>
        <mxCell id="3" value="" style="rounded=1;whiteSpace=wrap;html=1;fillColor=none;" parent="1" vertex="1">
          <mxGeometry x="260" y="204" width="440" height="260" as="geometry" />
        </mxCell>
        <mxCell id="2" value="" style="aspect=fixed;html=1;points=[];align=center;image;fontSize=12;image=img/lib/mscae/Docker.svg;" parent="1" vertex="1">
          <mxGeometry x="570" y="184" width="97.56" height="80" as="geometry" />
        </mxCell>
        <mxCell id="4" value="" style="pointerEvents=1;shadow=0;dashed=0;html=1;strokeColor=none;fillColor=#505050;labelPosition=center;verticalLabelPosition=bottom;verticalAlign=top;outlineConnect=0;align=center;shape=mxgraph.office.users.user;" parent="1" vertex="1">
          <mxGeometry x="20" y="301.5" width="80" height="85" as="geometry" />
        </mxCell>
        <mxCell id="5" value="&lt;font style=&quot;font-size: 14px&quot;&gt;インターネット&lt;/font&gt;" style="pointerEvents=1;shadow=0;dashed=0;html=1;strokeColor=none;fillColor=#505050;labelPosition=center;verticalLabelPosition=bottom;verticalAlign=top;outlineConnect=0;align=center;shape=mxgraph.office.concepts.globe_internet;" parent="1" vertex="1">
          <mxGeometry x="129" y="84" width="79" height="80" as="geometry" />
        </mxCell>
        <mxCell id="10" value="&lt;font style=&quot;font-size: 14px&quot;&gt;192.0.2.1&lt;/font&gt;" style="aspect=fixed;html=1;points=[];align=center;image;fontSize=12;image=img/lib/mscae/Local_Network_Gateways.svg;fillColor=none;" parent="1" vertex="1">
          <mxGeometry x="190" y="309" width="70" height="70" as="geometry" />
        </mxCell>
        <mxCell id="12" value="&lt;font style=&quot;font-size: 14px&quot;&gt;web00&lt;/font&gt;" style="aspect=fixed;html=1;points=[];align=center;image;fontSize=12;image=img/lib/mscae/Virtual_Machine_2.svg;fillColor=none;" parent="1" vertex="1">
          <mxGeometry x="390" y="379" width="66.3" height="61" as="geometry" />
        </mxCell>
        <mxCell id="14" value="&lt;font style=&quot;font-size: 14px&quot;&gt;app00&lt;/font&gt;" style="aspect=fixed;html=1;points=[];align=center;image;fontSize=12;image=img/lib/mscae/Virtual_Machine_2.svg;fillColor=none;" parent="1" vertex="1">
          <mxGeometry x="479.85" y="379" width="66.3" height="61" as="geometry" />
        </mxCell>
        <mxCell id="15" value="&lt;font style=&quot;font-size: 14px&quot;&gt;console&lt;/font&gt;" style="aspect=fixed;html=1;points=[];align=center;image;fontSize=12;image=img/lib/mscae/Virtual_Machine_2.svg;fillColor=none;" parent="1" vertex="1">
          <mxGeometry x="294" y="379" width="66.3" height="61" as="geometry" />
        </mxCell>
        <mxCell id="18" value="" style="endArrow=none;html=1;entryX=0.911;entryY=0;entryDx=0;entryDy=0;entryPerimeter=0;" parent="1" source="10" edge="1" target="33">
          <mxGeometry width="50" height="50" relative="1" as="geometry">
            <mxPoint x="210" y="494" as="sourcePoint" />
            <mxPoint x="750" y="344" as="targetPoint" />
          </mxGeometry>
        </mxCell>
        <mxCell id="19" value="" style="endArrow=none;html=1;entryX=0.497;entryY=-0.004;entryDx=0;entryDy=0;entryPerimeter=0;strokeWidth=2;" parent="1" target="15" edge="1">
          <mxGeometry width="50" height="50" relative="1" as="geometry">
            <mxPoint x="327" y="344" as="sourcePoint" />
            <mxPoint x="220" y="444" as="targetPoint" />
          </mxGeometry>
        </mxCell>
        <mxCell id="26" value="" style="endArrow=none;html=1;entryX=0.501;entryY=-0.004;entryDx=0;entryDy=0;entryPerimeter=0;strokeWidth=2;" parent="1" target="14" edge="1">
          <mxGeometry width="50" height="50" relative="1" as="geometry">
            <mxPoint x="513" y="344" as="sourcePoint" />
            <mxPoint x="387.9511" y="408.756" as="targetPoint" />
          </mxGeometry>
        </mxCell>
        <mxCell id="28" value="&lt;font style=&quot;font-size: 14px&quot;&gt;.2&lt;/font&gt;" style="text;html=1;align=center;verticalAlign=middle;resizable=0;points=[];autosize=1;" parent="1" vertex="1">
          <mxGeometry x="294" y="324" width="30" height="20" as="geometry" />
        </mxCell>
        <mxCell id="29" value="&lt;font style=&quot;font-size: 14px&quot;&gt;.10&lt;/font&gt;" style="text;html=1;align=center;verticalAlign=middle;resizable=0;points=[];autosize=1;" parent="1" vertex="1">
          <mxGeometry x="430" y="344" width="30" height="20" as="geometry" />
        </mxCell>
        <mxCell id="30" value="&lt;font style=&quot;font-size: 14px&quot;&gt;.11&lt;/font&gt;" style="text;html=1;align=center;verticalAlign=middle;resizable=0;points=[];autosize=1;" parent="1" vertex="1">
          <mxGeometry x="516.15" y="344" width="30" height="20" as="geometry" />
        </mxCell>
        <mxCell id="33" value="&lt;font style=&quot;font-size: 14px&quot;&gt;/&amp;nbsp;&lt;font style=&quot;font-size: 14px&quot;&gt;24&lt;/font&gt;&lt;/font&gt;" style="text;html=1;align=center;verticalAlign=middle;resizable=0;points=[];autosize=1;" parent="1" vertex="1">
          <mxGeometry x="623.56" y="344" width="40" height="20" as="geometry" />
        </mxCell>
        <mxCell id="34" value="" style="pointerEvents=1;shadow=0;dashed=0;html=1;strokeColor=#A50040;fillColor=#d80073;labelPosition=center;verticalLabelPosition=bottom;verticalAlign=top;outlineConnect=0;align=center;shape=mxgraph.office.concepts.powershell;fontColor=#ffffff;" parent="1" vertex="1">
          <mxGeometry x="287" y="364" width="31" height="25" as="geometry" />
        </mxCell>
        <mxCell id="lD-dSLsTMybCFlbBHuGv-46" value="" style="edgeStyle=orthogonalEdgeStyle;rounded=0;orthogonalLoop=1;jettySize=auto;html=1;endArrow=none;endFill=0;" parent="1" source="lD-dSLsTMybCFlbBHuGv-42" target="15" edge="1">
          <mxGeometry relative="1" as="geometry" />
        </mxCell>
        <mxCell id="lD-dSLsTMybCFlbBHuGv-42" value="&lt;font style=&quot;font-size: 14px&quot;&gt;host00&lt;/font&gt;" style="aspect=fixed;html=1;points=[];align=center;image;fontSize=12;image=img/lib/mscae/Virtual_Machine_2.svg;fillColor=none;" parent="1" vertex="1">
          <mxGeometry x="351.85" y="248" width="66.3" height="61" as="geometry" />
        </mxCell>
        <mxCell id="lD-dSLsTMybCFlbBHuGv-50" value="" style="edgeStyle=orthogonalEdgeStyle;rounded=0;orthogonalLoop=1;jettySize=auto;html=1;endArrow=none;endFill=0;" parent="1" source="lD-dSLsTMybCFlbBHuGv-48" edge="1">
          <mxGeometry relative="1" as="geometry">
            <mxPoint x="493" y="344" as="targetPoint" />
          </mxGeometry>
        </mxCell>
        <mxCell id="lD-dSLsTMybCFlbBHuGv-48" value="&lt;font style=&quot;font-size: 14px&quot;&gt;host01&lt;/font&gt;" style="aspect=fixed;html=1;points=[];align=center;image;fontSize=12;image=img/lib/mscae/Virtual_Machine_2.svg;fillColor=none;" parent="1" vertex="1">
          <mxGeometry x="460" y="248" width="66.3" height="61" as="geometry" />
        </mxCell>
        <mxCell id="lD-dSLsTMybCFlbBHuGv-52" value="&lt;font style=&quot;font-size: 14px&quot;&gt;.100&lt;/font&gt;" style="text;html=1;align=center;verticalAlign=middle;resizable=0;points=[];autosize=1;" parent="1" vertex="1">
          <mxGeometry x="379" y="228" width="40" height="20" as="geometry" />
        </mxCell>
        <mxCell id="lD-dSLsTMybCFlbBHuGv-54" value="&lt;font style=&quot;font-size: 14px&quot;&gt;.101&lt;/font&gt;" style="text;html=1;align=center;verticalAlign=middle;resizable=0;points=[];autosize=1;" parent="1" vertex="1">
          <mxGeometry x="506.15" y="228" width="40" height="20" as="geometry" />
        </mxCell>
      </root>
    </mxGraphModel>
  </diagram>
</mxfile>
